<svg width="15" height="15" viewBox="0 0 15 15" fill="none" xmlns="http://www.w3.org/2000/svg">
<path d="M13.98 13.3428L10.48 9.84283C11.3617 8.763 11.7948 7.38571 11.6899 5.9956C11.585 4.60548 10.95 3.30881 9.91619 2.37357C8.88239 1.43833 7.52879 0.936 6.13515 0.970408C4.7415 1.00482 3.41434 1.57333 2.42796 2.55845C1.44157 3.54357 0.871348 4.87 0.835148 6.26359C0.798948 7.65719 1.29953 9.01143 2.23345 10.0464C3.16736 11.0814 4.46321 11.7181 5.85319 11.8248C7.24317 11.9315 8.62102 11.5001 9.70198 10.6198L13.202 14.1198C13.2531 14.1709 13.3137 14.2114 13.3805 14.2391C13.4472 14.2667 13.5187 14.281 13.591 14.281C13.6632 14.281 13.7348 14.2667 13.8015 14.2391C13.8682 14.2114 13.9289 14.1709 13.98 14.1198C14.0311 14.0687 14.0716 14.0081 14.0992 13.9414C14.1269 13.8746 14.1411 13.8031 14.1411 13.7308C14.1411 13.6586 14.1269 13.5871 14.0992 13.5203C14.0716 13.4536 14.0311 13.3929 13.98 13.3418V13.3428ZM1.95898 6.41783C1.95918 5.56366 2.21265 4.72872 2.68735 4.0186C3.16205 3.30847 3.83665 2.75505 4.62586 2.42831C5.41507 2.10157 6.28345 2.01618 7.12119 2.18294C7.95892 2.34971 8.7284 2.76113 9.33233 3.36519C9.93625 3.96926 10.3475 4.73883 10.5141 5.57661C10.6806 6.41438 10.595 7.28274 10.2681 8.07187C9.94119 8.86101 9.38762 9.53549 8.67738 10.01C7.96715 10.4846 7.13215 10.7378 6.27798 10.7378C5.13266 10.7368 4.03457 10.2813 3.2248 9.4713C2.41503 8.66135 1.95977 7.56315 1.95898 6.41783Z" fill="white"/>
</svg>
